<?xml version="1.0" encoding="UTF-8" standalone="no"?>
<svg
   xmlns:dc="http://purl.org/dc/elements/1.1/"
   xmlns:cc="http://creativecommons.org/ns#"
   xmlns:rdf="http://www.w3.org/1999/02/22-rdf-syntax-ns#"
   xmlns:svg="http://www.w3.org/2000/svg"
   xmlns="http://www.w3.org/2000/svg"
   xmlns:sodipodi="http://sodipodi.sourceforge.net/DTD/sodipodi-0.dtd"
   xmlns:inkscape="http://www.inkscape.org/namespaces/inkscape"
   id="Calque_1"
   data-name="Calque 1"
   viewBox="0 0 500.11 110.00001"
   version="1.1"
   sodipodi:docname="logo.svg"
   width="500.10999"
   height="110"
   inkscape:version="0.92.4 (5da689c313, 2019-01-14)">
  <metadata
     id="metadata30">
    <rdf:RDF>
      <cc:Work
         rdf:about="">
        <dc:format>image/svg+xml</dc:format>
        <dc:type
           rdf:resource="http://purl.org/dc/dcmitype/StillImage" />
        <dc:title></dc:title>
      </cc:Work>
    </rdf:RDF>
  </metadata>
  <sodipodi:namedview
     pagecolor="#ffffff"
     bordercolor="#666666"
     borderopacity="1"
     objecttolerance="10"
     gridtolerance="10"
     guidetolerance="10"
     inkscape:pageopacity="0"
     inkscape:pageshadow="2"
     inkscape:window-width="958"
     inkscape:window-height="991"
     id="namedview28"
     showgrid="false"
     inkscape:zoom="2.3701736"
     inkscape:cx="272.01225"
     inkscape:cy="64.897952"
     inkscape:window-x="952"
     inkscape:window-y="0"
     inkscape:window-maximized="0"
     inkscape:current-layer="Calque_1" />
  <defs
     id="defs7">
    <style
       id="style2">.cls-1,.cls-4{fill:none;}.cls-2{clip-path:url(#clip-path);}.cls-3{fill:#03234b;}.cls-4{stroke:#03234b;stroke-miterlimit:10;}.cls-5{fill:#3cb4e6;}</style>
    <clipPath
       id="clip-path">
      <rect
         class="cls-1"
         x="26.07"
         y="10.97"
         width="158.92"
         height="104.54"
         id="rect4"
         style="fill:none" />
    </clipPath>
  </defs>
  <g
     id="g5106"
     transform="translate(14.73052,20.386011)">
    <g
       transform="translate(-44.300552,-31.091015)"
       id="g17"
       clip-path="url(#clip-path)"
       class="cls-2">
      <g
         id="g15"
         clip-path="url(#clip-path)"
         class="cls-2">
        <path
           style="fill:#03234b"
           inkscape:connector-curvature="0"
           id="path9"
           d="M 160.9,34.48 H 82.71 a 14.44,14.44 0 0 0 -13.24,8.6 L 54,80.28 a 0.78,0.78 0 0 0 -0.07,0.31 0.81,0.81 0 0 0 0.82,0.8 h 35.34 c 2.51,0 3.6,-2.42 1.65,-4.34 l -13,-12.13 C 72,58.23 74.88,42.74 89,42.74 h 69.12 a 0.82,0.82 0 0 0 0.78,-0.54 l 2.73,-6.61 a 0.78,0.78 0 0 0 0.06,-0.31 0.81,0.81 0 0 0 -0.82,-0.8"
           class="cls-3" />
        <path
           style="fill:#03234b"
           inkscape:connector-curvature="0"
           id="path11"
           d="m 153.11,53.4 h -13.27 a 2.15,2.15 0 0 0 -2,1.31 L 123,90.67 a 0.78,0.78 0 0 0 -0.09,0.37 0.8,0.8 0 0 0 0.81,0.8 h 5 A 14.48,14.48 0 0 0 142,83 v 0 l 11.82,-28.53 a 0.8,0.8 0 0 0 0.06,-0.3 0.82,0.82 0 0 0 -0.82,-0.81"
           class="cls-3" />
        <path
           style="fill:#03234b"
           inkscape:connector-curvature="0"
           id="path13"
           d="M 127,54.21 A 0.82,0.82 0 0 0 126.18,53.4 H 88.57 a 2.52,2.52 0 0 0 -1.67,4.5 l 12.44,11.57 c 0,0 5,4.64 4,11.28 a 14.33,14.33 0 0 1 -7.83,10.71 v 0 a 0.22,0.22 0 0 0 -0.12,0.18 0.21,0.21 0 0 0 0.21,0.21 h 14.5 a 2.14,2.14 0 0 0 2,-1.32 l 14.93,-36 a 0.87,0.87 0 0 0 0,-0.28"
           class="cls-3" />
      </g>
    </g>
    <line
       style="fill:none;stroke:#03234b;stroke-miterlimit:10"
       id="line19"
       y2="66.138992"
       x2="143.60945"
       y1="3.0889857"
       x1="143.60945"
       class="cls-4" />
    <path
       style="fill:#03234b"
       inkscape:connector-curvature="0"
       id="path21"
       d="m 200.60945,14.818985 v -3 a 1.27,1.27 0 0 0 -1.42,-1.46 h -31.29 a 1.27,1.27 0 0 0 -1.42,1.46 v 3 a 1.27,1.27 0 0 0 1.42,1.46 h 12.3 v 43.43 a 1.28,1.28 0 0 0 1.43,1.46 h 3.83 a 1.27,1.27 0 0 0 1.42,-1.46 v -43.43 h 12.31 a 1.27,1.27 0 0 0 1.42,-1.46 z m 13.87,7 q -7,0 -10.61,3.710001 -3.61,3.71 -3.63,10.88 v 10.999999 q 0,7.11 3.63,10.81 3.63,3.7 10.61,3.69 7.05,0 10.69,-3.71 3.64,-3.71 3.63,-10.81 V 36.388986 q 0,-7.17 -3.63,-10.88 -3.63,-3.710001 -10.69,-3.670001 z m 8,24.86 c 0,3.29 -0.62,5.73 -1.91,7.29 -1.29,1.56 -3.32,2.36 -6.1,2.36 -2.78,0 -4.73,-0.79 -6,-2.36 -1.27,-1.57 -1.91,-4 -1.91,-7.29 v -9.549999 c 0,-3.35 0.62,-5.8 1.91,-7.38 1.29,-1.58 3.29,-2.35 6,-2.35 2.71,0 4.81,0.79 6.1,2.35 1.29,1.56 1.91,4 1.91,7.38 z m 39,-24.12 h -3.11 c -0.95,0 -1.42,0.500001 -1.42,1.480001 v 23.209999 c 0,3.15 -0.68,5.45 -1.87,6.9 -1.19,1.45 -3.07,2.17 -5.65,2.17 -2.58,0 -4.47,-0.72 -5.66,-2.17 a 10.76,10.76 0 0 1 -2,-6.9 V 24.058986 c 0,-1 -0.47,-1.480001 -1.41,-1.480001 h -3.12 c -0.94,0 -1.41,0.500001 -1.41,1.480001 v 23.729999 q 0,7 3.46,10.55 c 2.3,2.38 5.67,3.57 10.08,3.57 4.41,0 7.78,-1.19 10.09,-3.57 2.31,-2.38 3.46,-5.89 3.46,-10.55 V 24.058986 c 0.02,-0.98 -0.45,-1.480001 -1.4,-1.480001 z m 31.76,31.22 c -0.61,-0.82 -1.3,-0.85 -2.06,-0.08 a 9,9 0 0 1 -6.62,2.63 q -4.33,0 -6.51,-2.39 c -1.44,-1.6 -2.17,-4.15 -2.17,-7.65 v -8.849999 q 0,-5.25 2.06,-7.65 c 1.37,-1.59 3.47,-2.39 6.32,-2.39 a 10.88,10.88 0 0 1 3.5,0.5 8.71,8.71 0 0 1 2.66,1.51 1.3,1.3 0 0 0 2.05,-0.15 l 1.6,-2 a 1.35,1.35 0 0 0 -0.15,-2.09 c -2.44,-2.21 -5.78,-3.320001 -10.05,-3.320001 q -6.91,0 -10.61,3.750001 -3.7,3.75 -3.69,11.15 v 10.159999 q 0,7.49 3.76,11.23 3.76,3.74 10.81,3.77 a 14.71,14.71 0 0 0 10.56,-4.09 1.47,1.47 0 0 0 0.08,-2.09 z m 23.36,-31.6 c -4,0 -6.81,1.260001 -8.66,3.770001 h -0.16 V 8.8289855 a 1.27,1.27 0 0 0 -1.42,-1.46 h -3.45 a 1.27,1.27 0 0 0 -1.43,1.46 V 59.708985 a 1.28,1.28 0 0 0 1.43,1.46 h 3.45 a 1.27,1.27 0 0 0 1.42,-1.46 V 37.108986 c 0,-6.25 2.5,-9.38 7.61,-9.38 q 4,0 5.83,2.27 a 11.12,11.12 0 0 1 2.15,7.11 v 22.599999 a 1.27,1.27 0 0 0 1.42,1.46 h 3.09 a 1.28,1.28 0 0 0 1.43,-1.46 V 36.418986 q 0,-7 -3.24,-10.61 -3.24,-3.610001 -9.43,-3.610001 z m 57.19,8.530001 h -16.59 a 1.53,1.53 0 0 0 -1.5,1.55 v 6.65 a 1.53,1.53 0 0 0 1.52,1.53 h 7.75 v 1.4 c 0,7.249999 -2.62,10.629999 -8.33,10.629999 -5.71,0 -8.36,-3.45 -8.36,-10.549999 v -13.11 c 0,-7.000001 2.5,-10.100001 8.43,-10.100001 a 11.14,11.14 0 0 1 5.35,1.2 13.15,13.15 0 0 1 3.73,3.560001 c 1.29,1.6 1.77,1.72 3.44,0.8 l 4,-2.540001 c 1.78,-1.37 1.77,-2 0.81,-3.48 -3.86,-6.05 -9.51,-8.9999995 -17.25,-8.9999995 -6.2,0 -11,1.6499995 -14.3,4.9199995 -3.3,3.27 -5,8 -5,14.190001 v 14.44 c 0,6.139999 1.65,10.909999 4.89,14.179999 3.24,3.27 8,4.93 14.07,4.93 6.07,0 10.83,-1.69 14.05,-5 3.22,-3.31 4.84,-8.19 4.84,-14.479999 v -10.17 a 1.53,1.53 0 0 0 -1.51,-1.53 z m 40.43,-20.000001 h -30 a 1.53,1.53 0 0 0 -1.52,1.52 v 47.41 a 1.52,1.52 0 0 0 1.52,1.52 h 7.72 a 1.52,1.52 0 0 0 1.52,-1.52 V 40.008986 h 17.39 a 1.52,1.52 0 0 0 1.52,-1.52 v -6.23 a 1.52,1.52 0 0 0 -1.52,-1.52 h -17.32 V 20.358985 h 20.73 a 1.53,1.53 0 0 0 1.52,-1.52 v -6.61 a 1.53,1.53 0 0 0 -1.52,-1.52 z m 15.13,18.700001 a 1.11,1.11 0 0 0 2,0 l 4.21,-8.230001 a 2,2 0 0 0 0,-1.8 l -4.07,-7.95 a 2.25,2.25 0 0 0 -1.73,-0.72 h -7.7 a 1.45,1.45 0 0 0 -1.39,0.62 1.56,1.56 0 0 0 0.19,1.54 z m 4.35,17.749999 -2.45,-4.429999 a 1.15,1.15 0 0 0 -2,0 l -9,16.299999 a 1.49,1.49 0 0 0 -0.2,1.52 1.5,1.5 0 0 0 1.42,0.62 h 7.8 a 2.22,2.22 0 0 0 2.01,-1.26 l 4.23,-7.63 a 2,2 0 0 0 0,-1.85 z"
       class="cls-3" />
    <path
       style="fill:#3cb4e6"
       inkscape:connector-curvature="0"
       id="path23"
       d="m 448.47945,34.908986 11.87,-22.100001 a 1.48,1.48 0 0 0 0.19,-1.52 1.5,1.5 0 0 0 -1.42,-0.61 h -7.92 a 2.35,2.35 0 0 0 -1.78,0.71 l -12.58,23.520001 a 2.37,2.37 0 0 0 -0.27,1 h 11.64 a 2.33,2.33 0 0 1 0.27,-1 z"
       class="cls-5" />
    <path
       style="fill:#3cb4e6"
       inkscape:connector-curvature="0"
       id="path25"
       d="m 440.39945,43.568985 9.16,16.34 a 2.23,2.23 0 0 0 2.08,1.22 h 7.84 a 1.28,1.28 0 0 0 1.22,-2.1 l -12.22,-21.829999 a 2.32,2.32 0 0 1 -0.27,-1.26 h -11.64 a 2.29,2.29 0 0 0 0.27,1.25 z"
       class="cls-5" />
  </g>
</svg>
